<?xml version="1.0" encoding="UTF-8" standalone="no"?>
<svg width="714px" height="716px" viewBox="0 0 714 716" version="1.1" xmlns="http://www.w3.org/2000/svg" xmlns:xlink="http://www.w3.org/1999/xlink" xmlns:sketch="http://www.bohemiancoding.com/sketch/ns">
    <!-- Generator: Sketch 3.2 (9961) - http://www.bohemiancoding.com/sketch -->
    <title>Path 3</title>
    <desc>Created with Sketch.</desc>
    <defs></defs>
    <g id="Page-1" stroke="none" stroke-width="1" fill="none" fill-rule="evenodd" sketch:type="MSPage">
        <g id="-1036" sketch:type="MSArtboardGroup" transform="translate(-43.000000, -33.000000)" fill="#5D3410">
            <path d="M497.084492,729.333009 L411.427357,748.071495 L364.764204,731.559882 L342.582506,731.853927 L330.406179,743.399095 L260.794742,721.481626 L213.837544,682.788315 L174.873379,670.90272 L135.155879,632.368027 L86.3681514,565.330516 L55.3013467,487.983649 L43.9412998,426.669229 L58.2819569,402.802367 L49.5123996,386.006648 L66.6386066,341.808496 L45.2367464,326.853245 L65.6177311,251.079306 L109.24767,192.418321 L137.928985,144.684598 L180.468476,105.277709 L242.56936,68.1937671 L284.160457,66.98777 L295.262902,48.5101999 L377.374527,33.9285048 L459.320908,37.061107 L500.90538,46.3297086 L509.357702,77.6048254 L526.305413,72.070168 L572.205293,77.6445808 L639.03118,119.89334 L687.825534,176.456254 L719.675489,233.316525 L741.668752,287.397872 L731.147773,360.713437 L743.932067,362.107868 L756.0587,429.122189 L736.137004,509.363529 L704.207538,578.198441 L635.464985,643.775263 L587.526263,695.655837 L497.084492,729.333009 Z M397.678385,82.2779908 C229.39116,82.2779908 92.4768801,219.19227 92.4768801,387.482808 C92.4768801,555.773346 229.39116,692.687625 397.678385,692.687625 C565.968923,692.687625 702.883203,555.773346 702.883203,387.482808 C702.883203,219.19227 565.968923,82.2779908 397.678385,82.2779908 Z M599.471375,223.024055 C635.778945,267.385991 657.76617,323.885776 658.339117,385.416227 C649.744923,383.601346 563.557912,366.118206 476.814514,377.027367 C474.986385,372.563023 473.118514,368.078808 471.197654,363.57141 C465.786127,350.860614 459.970557,338.229303 453.903289,325.81326 C550.29073,286.46212 593.977052,230.459109 599.471375,223.024055 L599.471375,223.024055 Z M397.678385,127.18969 C463.918256,127.18969 524.45516,152.035023 570.489568,192.879797 C565.803332,199.556442 526.55817,252.303926 433.860106,287.048313 C391.144149,208.561303 343.794945,144.083324 336.588407,134.435969 C356.194428,129.709991 376.644966,127.18969 397.678385,127.18969 L397.678385,127.18969 Z M286.848063,151.958851 C293.720106,161.384313 340.304278,225.941776 383.50045,302.726507 C261.558945,335.109561 154.156364,334.642593 142.495418,334.486937 C159.398988,253.592227 213.914988,186.358808 286.848063,151.958851 L286.848063,151.958851 Z M136.987848,387.880227 C136.987848,385.214206 137.040837,382.561432 137.120321,379.915281 C148.526256,380.150421 274.855934,381.776528 405.043891,342.816184 C412.505439,357.421346 419.635805,372.245088 426.179977,387.055582 C422.729052,388.025948 419.304622,389.059238 415.906687,390.158765 C281.456407,433.616571 209.910988,552.077346 204.005998,562.185045 C162.369697,515.971797 136.987848,454.835453 136.987848,387.880227 L136.987848,387.880227 Z M397.678385,648.570765 C337.413052,648.570765 281.867074,628.007625 237.667418,593.541432 C242.356966,583.950378 295.14088,481.979195 442.179418,430.741905 C442.752364,430.543195 443.32531,430.357733 443.898256,430.162335 C480.497267,525.27141 495.632321,604.980485 499.510471,627.851969 C468.210385,641.185389 433.793869,648.570765 397.678385,648.570765 L397.678385,648.570765 Z M543.335891,603.986937 C540.666557,588.129905 526.789998,511.815453 492.691418,418.117217 C574.384278,405.038808 646.154902,426.446464 655.073654,429.261518 C643.455762,501.797174 601.819461,564.440399 543.335891,603.986937 L543.335891,603.986937 Z" id="Path-3" sketch:type="MSShapeGroup"></path>
        </g>
    </g>
</svg>