<?xml version="1.0" encoding="UTF-8" standalone="no"?>
<svg width="395px" height="241px" viewBox="0 0 395 241" version="1.1" xmlns="http://www.w3.org/2000/svg" xmlns:xlink="http://www.w3.org/1999/xlink" xmlns:sketch="http://www.bohemiancoding.com/sketch/ns">
    <!-- Generator: Sketch 3.2 (9961) - http://www.bohemiancoding.com/sketch -->
    <title>Fill 1</title>
    <desc>Created with Sketch.</desc>
    <defs></defs>
    <g id="Page-1" stroke="none" stroke-width="1" fill="none" fill-rule="evenodd" sketch:type="MSPage">
        <g id="-1037" sketch:type="MSArtboardGroup" transform="translate(-40.000000, -52.000000)" fill="#5D3410">
            <path d="M84.1951002,214.581068 C88.5623542,214.496545 91.8080625,212.005264 94.0408889,208.798202 C94.1948718,209.359974 94.3502045,209.915813 94.5064608,210.492956 C94.7673247,211.17253 101.341267,208.908933 103.530448,207.808682 C105.947243,206.621058 107.19272,205.103351 106.811651,203.430306 C102.424925,185.879557 99.6087412,159.149122 104.957661,157.095865 C110.420387,154.99892 108.559881,165.459479 112.3149,180.003924 C116.026443,194.435108 126.136104,199.001232 135.128422,195.549405 C138.929885,194.09016 142.289555,190.360299 143.540557,185.436459 C148.539196,188.017238 153.771369,188.003193 157.185573,186.692602 C162.6483,184.595658 163.273878,179.417357 162.646656,170.299798 C167.370923,177.844649 170.831173,179.37532 174.914162,180.147138 C178.819568,180.961855 183.176423,178.710048 186.25724,174.948253 C186.286172,175.047245 186.316453,175.140304 186.345385,175.239296 C186.562772,175.805608 193.136714,173.542011 195.369372,172.555022 C197.786167,171.367398 198.988167,169.736429 198.652156,168.176039 C194.335759,150.468342 191.541018,125.159144 196.889938,123.105887 C202.581858,120.920963 200.740225,130.07476 204.06687,144.52374 C210.893465,173.873176 225.024369,180.406191 239.345101,164.642793 C240.956665,162.72285 239.052631,161.504465 237.877484,162.865223 C228.065161,174.040872 222.096677,163.594888 216.34039,136.693536 C212.582801,119.421091 205.221128,114.189968 198.049719,116.942814 C188.945175,120.437721 190.67634,135.497343 192.303862,151.638169 C192.509441,152.858772 191.913555,153.347414 191.505634,151.94458 C187.415592,138.568351 185.075474,129.070503 183.160879,121.356783 C182.823287,119.797 167.968313,127.710274 168.804005,129.207 C172.987403,136.495616 178.813803,150.299079 185.578509,172.698199 C184.050754,174.623873 181.846636,175.614345 179.203001,174.992112 C176.36324,174.392822 174.22202,169.49508 171.180856,159.876483 C169.435364,154.308833 167.87559,148.539942 167.598435,138.638247 C167.570594,136.179852 152.853427,145.46789 153.381553,147.864196 C154.003032,151.524183 154.704091,154.375717 155.417934,156.57078 C158.050585,167.515756 163.106367,180.001465 157.64206,182.099016 C152.179334,184.19596 148.18267,177.866254 144.160388,161.605077 C139.218684,141.928234 146.023927,134.139537 153.971696,141.917982 L154.19931,141.830609 C155.906412,141.175314 169.489365,136.416137 166.238522,134.415227 C157.304008,128.488344 124.063802,139.526204 131.067158,167.640027 C133.145647,176.045277 137.101866,181.244407 141.479914,184.225849 C140.948245,188.061365 138.969247,191.353284 136.266336,192.390835 C132.055484,194.007229 128.509319,190.556652 124.589628,172.176867 C121.028972,156.778102 115.886557,148.484102 106.211399,152.198047 C97.1068548,155.692954 98.7692711,170.908918 100.463961,186.894009 C100.714598,188.227267 100.190018,188.556781 99.6682902,187.197634 C97.3205145,181.081469 95.3726812,175.331588 90.5940556,156.759905 C90.4144975,156.065365 90.2456667,155.408219 90.0711703,154.731589 C96.6872511,151.080105 102.571541,146.882892 107.190256,141.812409 C107.444722,141.454825 102.015851,128.332621 100.505681,130.861596 C97.4762333,136.240703 93.1561023,141.58823 87.9839086,146.44522 C79.6279844,112.313307 81.7798695,107.189845 88.8449047,106.616621 C99.991894,105.716436 100.450075,126.984391 88.5598084,136.488606 C87.9639223,136.977248 87.6685487,139.949569 90.5776499,137.663304 C104.869667,126.587385 104.109393,102.83636 90.3384488,103.704172 C80.8008466,104.289792 63.4550522,113.141153 76.230216,155.615447 C72.5895216,157.965958 68.7561816,160.036661 64.8164567,161.716834 C63.8471591,157.150748 62.817759,152.087927 61.815211,146.754895 C61.5908223,145.149853 46.2585744,151.815061 46.7534501,153.44442 C48.0379198,158.151231 49.3921152,162.69952 50.7028332,167.134546 C47.2451519,168.331874 43.9281296,169.215305 41.0931867,169.653779 C39.6389698,169.952097 39.5996426,172.566227 41.3217891,172.295012 C44.6570172,171.794448 48.0609942,171.137542 51.7194369,170.123053 C60.1539867,196.517927 72.2450651,214.7499 84.1951002,214.581068 L84.1951002,214.581068 Z M65.6238828,165.342417 C69.779625,163.813958 73.8850879,162.225384 77.8621446,160.529076 C78.1437886,161.366723 78.4096793,162.186953 78.7126533,163.047094 C85.9716876,183.776453 89.682978,193.383277 93.2357179,205.733021 C91.7436474,208.531196 89.5538672,210.754315 86.83875,210.744303 C78.0113739,210.884023 72.5965582,195.417293 65.6238828,165.342417 Z M239.037577,156.274535 C241.497849,155.200174 242.586042,153.612891 242.204973,151.939846 C236.004341,120.139141 237.489843,101.893676 243.160333,101.0183 C248.873696,100.254614 252.830788,122.128738 241.336031,133.688505 C240.853951,134.133461 251.817189,152.148612 260.702098,149.777629 C266.604461,148.221243 270.525878,143.252379 272.437855,137.154323 C276.875116,140.167181 283.285075,141.114251 288.773717,139.911606 C300.080238,137.390762 310.399848,127.191754 306.367339,111.584261 C305.50802,108.665331 304.367382,106.374195 302.744666,104.528016 C306.19212,103.984372 309.840336,103.623567 313.647416,103.331731 C316.997689,103.215247 318.262039,100.390778 313.914357,100.630228 C309.181777,100.887475 304.693437,101.440822 300.449335,102.29027 C290.887329,94.3932751 276.522079,95.7491236 273.797719,81.8486584 C268.522957,82.0541259 260.337514,84.5464647 262.631586,91.2030512 C263.605316,94.0798683 266.355874,96.1428686 269.913306,97.2463804 C271.865957,104.034026 272.972085,109.977056 271.200396,116.246871 C268.130182,120.154401 266.378344,125.115275 267.277312,129.838309 C267.777661,132.162252 268.972323,134.093332 270.601024,135.657457 C269.706959,139.498522 267.916358,142.156804 264.994765,142.931761 C258.474527,144.654935 252.881973,130.425998 253.364053,129.981041 C265.856219,118.298309 263.198308,94.3660557 250.240033,95.3099641 C234.546181,96.2661535 232.331791,111.932476 236.415486,135.837228 C236.622646,137.057224 235.625237,137.18019 235.103509,135.821042 C218.880775,83.6946431 211.491544,55.6007961 224.281704,55.2394228 C235.487215,54.8365807 236.000681,75.5635065 224.10823,85.066755 C223.398537,85.599084 223.103164,88.5714045 226.126675,86.2430267 C240.304886,75.2107942 239.703476,51.5287378 225.889055,52.2832882 C203.492473,53.4714792 204.662312,92.9211986 230.055486,159.072679 C230.272873,159.63899 236.734589,157.418473 239.037577,156.274535 Z M272.894331,97.8253599 C278.626889,100.173146 284.982185,101.762079 288.900232,105.846004 C283.009735,107.849056 277.860973,110.083579 274.21435,113.174563 C274.968176,108.335082 274.323673,103.254464 272.894331,97.8253599 L272.894331,97.8253599 Z M277.412057,126.515161 C275.643543,119.526881 278.704789,111.854194 290.846618,108.103044 C292.887483,110.698373 294.088223,113.486245 295.02427,117.285384 C297.054252,124.954811 296.499325,134.394398 288.77069,136.711385 C282.861383,138.329997 278.800107,131.83197 277.412057,126.515161 Z M101.530766,232.871535 C85.0872646,239.183604 76.0387376,255.065589 80.337301,272.386667 C84.3967392,289.084802 100.775423,296.375762 112.46972,289.937466 C113.882412,289.200257 113.278843,287.287743 112.960741,287.474826 C101.755256,293.660509 90.5211972,284.459689 86.8594532,269.818072 C82.8767428,254.000145 87.8282251,239.690868 99.9470684,235.03888 C113.659207,229.775283 122.215273,240.328967 125.080369,255.276388 C126.553536,263.025996 125.123949,270.527178 118.925937,269.007822 C117.506847,268.707873 115.650722,265.913482 114.152669,261.160512 C113.258184,258.320056 111.680808,252.169871 111.621965,247.254294 C111.54877,246.04785 105.695699,249.334247 104.707887,251.012949 C100.501494,248.729082 90.9950933,252.703126 94.0718078,264.970281 C96.4330607,274.523187 102.525579,276.277967 105.996686,274.945534 C108.671146,273.918905 109.408654,270.06213 109.139426,265.618973 C111.435438,269.219145 114.545956,270.689139 116.58745,271.075048 C124.288308,272.602299 132.050797,263.059998 130.381032,252.591896 C127.346484,233.291164 113.99103,228.088488 101.530766,232.871535 Z M106.704728,260.638114 C107.913151,265.827142 108.95026,271.080127 106.44651,272.041227 C103.716728,273.089092 102.678385,270.043954 100.611247,261.937569 C98.2567258,252.577006 102.043031,249.174304 104.667641,252.780096 C105.18554,255.830085 105.878659,258.48613 106.704728,260.638114 Z M199.245838,181.177177 C195.186947,183.926463 194.367974,188.02929 195.937625,190.134085 C197.588864,191.884486 201.194283,192.772845 205.610153,190.103113 C209.36215,187.688219 210.167269,183.265831 208.954598,181.240591 C207.357238,178.496675 203.340356,178.520703 199.245838,181.177177 Z M309.295475,163.331943 C308.342803,159.149331 302.292782,156.706821 297.000984,159.929376 C289.176242,164.773995 291.085869,177.685885 293.209089,192.571549 C293.417953,193.682597 292.88515,193.995414 292.581447,192.920771 C289.442332,182.673771 286.246686,172.284228 284.595941,165.701961 C289.972882,162.701212 294.756525,159.260401 298.526399,155.120394 C298.738454,154.822407 294.215501,143.890121 292.958004,145.995421 C287.198435,156.22 275.841224,166.319157 263.219115,171.705797 C262.412947,167.900118 261.555114,163.681101 260.719657,159.236907 C260.532193,157.902863 247.758217,163.456091 248.168429,164.812924 C249.239898,168.733348 250.368394,172.523589 251.460659,176.219445 C248.579258,177.217218 245.815073,177.95341 243.452621,178.318805 C242.24209,178.566898 242.208001,180.745845 243.64444,180.519327 C246.422479,180.102696 249.259127,179.555274 252.307829,178.709867 C254.849944,186.664609 257.794039,193.710604 260.983377,199.482064 C259.068888,199.71521 257.205886,200.011616 255.39874,200.373216 C247.432222,193.793192 235.46118,194.923066 233.191383,183.340656 C228.795749,183.511879 221.977444,185.587715 223.88917,191.134871 C224.700109,193.530907 226.99066,195.250681 229.955187,196.170274 C231.583976,201.826039 232.50575,206.778564 231.028839,212.002099 C228.470328,215.258374 227.010462,219.392435 227.758998,223.326724 C228.229403,225.515966 229.429499,227.300569 231.06834,228.678508 C230.246134,232.706771 226.880884,235.467746 223.170538,234.61786 C218.231437,233.373304 211.920355,213.814212 211.570764,197.596153 C211.532005,196.096733 203.204186,200.19773 200.376285,202.676631 C198.239301,199.878148 193.404719,198.721618 189.075785,201.357978 C181.251043,206.202597 183.162251,219.113881 185.28547,233.999544 C185.492754,235.111199 184.961532,235.423409 184.657829,234.348766 C181.214336,223.110407 177.697778,211.681705 176.233142,205.314974 C175.820141,203.955602 163.443128,210.547675 164.176272,211.890643 C167.619546,217.860628 173.997189,232.54264 179.737687,251.394852 C178.462446,253.127937 176.562825,254.037622 174.271427,253.496763 C171.903642,252.99786 170.119796,248.917719 167.586809,240.901717 C166.132837,236.263582 164.831708,231.456678 164.602565,223.20607 C164.578047,221.157914 152.315059,228.89744 152.755164,230.894361 C153.273063,233.94435 153.858092,236.318812 154.451644,238.148538 C156.646838,247.268844 160.857565,257.671224 156.305293,259.418678 C151.753021,261.166131 148.329374,255.648858 144.977976,242.099188 C140.860392,225.70313 146.435911,218.967653 153.059051,225.44969 L153.248729,225.37688 C154.671314,224.8308 166.083326,221.110727 163.375607,219.442796 C155.930179,214.503727 128.278425,223.824139 134.116446,247.248591 C138.051294,263.17333 150.12257,265.418016 155.906168,263.197901 C160.45844,261.450447 160.987496,257.159298 160.465314,249.562643 C164.4017,255.848708 167.290073,257.136852 170.692564,257.780034 C174.012577,258.472924 177.731346,256.514786 180.30515,253.265275 C180.340351,253.385324 180.379317,253.505733 180.414518,253.625782 C180.537066,254.228499 186.015955,252.343741 187.840273,251.426865 C189.854268,250.437179 190.890585,249.173029 190.575212,247.779792 C186.286605,228.958642 184.217711,209.395523 188.371441,206.609832 C190.218135,205.46778 190.175523,208.191464 190.726463,212.744874 C191.161832,216.02869 197.329977,210.941 200.077722,207.379255 C203.477332,223.189988 212.938238,237.107178 219.9034,238.579323 C225.735054,239.815164 230.865921,235.289892 232.615502,229.770371 C236.278506,231.999313 241.318269,232.674592 245.670849,231.720332 C255.09137,229.620236 263.689727,221.121569 260.329806,208.116636 C259.613707,205.684194 258.663779,203.776487 257.310911,202.236431 C258.89476,201.98762 260.53814,201.789958 262.218516,201.617802 C267.539724,210.514587 273.470854,215.836404 279.365871,215.753819 C283.187764,215.680103 285.96592,213.388152 287.831699,210.524134 C288.001115,211.083591 288.170674,211.633969 288.339344,212.200933 C288.461892,212.803649 293.940177,210.917319 295.764495,210.000443 C297.77849,209.010756 298.816388,207.746 298.49883,206.351796 C294.212408,187.531613 292.14291,167.966921 296.29664,165.181229 C298.143334,164.039178 298.100722,166.762862 298.651662,171.316271 C299.224978,175.644505 309.771811,165.42325 309.295475,163.331943 Z M232.418057,196.659616 C237.195189,198.616105 242.491269,199.940216 245.756309,203.343487 C240.847057,205.011385 236.556926,206.874799 233.519864,209.446623 C234.147578,205.417213 233.610493,201.183365 232.418057,196.659616 L232.418057,196.659616 Z M250.858564,212.873419 C252.549713,219.263297 252.087273,227.12962 245.646744,229.060442 C240.723639,230.40878 237.339242,224.993757 236.184618,220.563787 C234.709879,214.7424 237.260918,208.348494 247.377791,205.223042 C249.078512,207.385816 250.079128,209.709043 250.858564,212.873419 L250.858564,212.873419 Z M281.55458,212.73179 C274.201331,212.847111 269.687907,199.960087 263.877637,174.902391 C266.841853,173.813267 269.772147,172.683018 272.635148,171.495575 C276.047805,177.735411 281.781637,191.108749 287.088531,208.151058 C285.844071,210.66828 283.946675,212.741261 281.55458,212.73179 Z M418.185322,125.022704 C420.329479,131.520251 421.971747,136.696157 423.109978,141.229883 C424.424962,146.356348 427.996407,143.4711 427.678246,142.075323 C424.036022,127.772751 423.305465,113.108741 420.056897,83.3857347 C419.868829,82.0501173 406.218926,88.1561688 406.665973,89.6089597 C411.058136,103.73917 414.638059,114.331351 417.440256,122.77465 C414.623383,125.050779 411.602534,127.008134 408.213833,128.21508 C405.609476,125.966007 401.40671,124.655385 399.415091,125.419895 C398.656379,125.711138 397.968549,126.191757 397.54602,126.787123 C390.06012,126.845071 378.092312,136.203977 382.529034,153.993633 C383.978874,159.920237 386.662235,163.868062 389.763913,166.344965 C388.780195,169.971372 386.406818,173.927266 383.102881,173.914061 C375.746471,174.030595 371.236208,161.142357 365.424358,136.085268 C378.963957,131.104489 391.89296,125.383458 400.084253,116.391289 C400.294728,116.093909 395.773356,105.161017 394.512697,107.267529 C390.971938,113.554034 385.311915,119.785899 378.547082,124.911318 C378.674581,124.775741 378.810446,124.647783 378.935157,124.509667 C379.147212,124.21168 374.624259,113.279394 373.365181,115.3853 C370.989266,119.603877 367.649081,123.795528 363.67127,127.648963 C363.208146,125.355852 362.737936,122.973413 362.27435,120.509016 C362.090047,119.173758 349.314491,124.727593 349.724703,126.084426 C350.684121,129.594836 351.686199,132.989603 352.670818,136.315266 C351.19499,137.251785 349.68334,138.128054 348.141585,138.940074 C347.046656,139.210573 345.986927,139.440486 345.007314,139.590914 C344.400468,139.715567 344.091125,140.327046 344.113327,140.876233 C343.951959,140.947201 343.792029,141.026641 343.627872,141.095069 C342.820124,137.289998 341.96071,133.071587 341.126834,128.626787 C340.940951,127.292136 328.165395,132.845971 328.577187,134.202196 C329.647075,138.123228 330.775572,141.913469 331.867837,145.609324 C328.986436,146.607097 326.22225,147.343289 323.859798,147.708685 C322.649268,147.956777 322.615178,150.135725 324.053198,149.9086 C326.829657,149.492576 329.666304,148.945154 332.715006,148.099746 C336.18004,158.945396 340.389163,168.124679 344.956745,174.63772 C344.963459,174.730802 344.95465,174.811793 344.964756,174.908988 C345.403812,180.588276 342.423863,190.395617 334.640153,192.517159 C330.929158,193.616797 329.373362,191.831564 326.529241,189.241355 C340.544604,173.032054 336.228332,151.299416 322.082906,154.130302 C313.179753,155.598627 305.904902,168.679023 309.169984,181.720361 C312.615617,195.232053 324.387409,198.402094 333.248998,195.975086 C342.086985,193.510212 346.511172,184.162824 346.784754,177.080122 C350.955782,182.267186 355.376933,185.205008 359.774628,185.143092 C366.849487,185.006488 370.37596,177.303218 371.059579,172.351711 C374.283538,175.388116 377.608475,177.071803 380.922144,177.025321 C386.555181,176.91696 389.937685,172.008769 391.43275,167.512853 C395.723558,170.125294 400.515014,170.262375 403.937122,168.948751 C411.524241,166.036328 420.21432,155.230103 416.356663,140.356859 C414.823316,134.666262 412.387841,132.568948 409.923076,129.833118 C413.152273,128.678375 416.121246,126.88352 418.185322,125.022704 Z M325.341866,187.996616 C322.971337,185.222807 320.997812,181.215477 319.850734,176.24295 C317.343315,166.592737 315.686256,158.023911 321.073453,157.038891 C325.419002,156.453722 332.024703,175.358254 325.39987,187.864252 L325.341866,187.996616 L325.341866,187.996616 Z M369.143165,170.914433 C369.215182,174.787144 366.444543,182.021593 361.976446,182.004045 C354.621617,182.119973 350.109774,169.232342 344.297923,144.175253 C347.596864,142.961249 350.857514,141.704188 354.023591,140.366113 C358.227758,153.397118 363.50191,163.97607 369.182324,170.359741 C369.166607,170.540848 369.140341,170.71337 369.143165,170.914433 L369.143165,170.914433 Z M406.904313,144.907615 C409.705333,156.177814 409.06865,164.435901 404.706056,166.110544 C399.964106,167.930808 396.598335,161.425705 393.454824,148.989264 C390.666078,138.039232 391.837144,129.467721 396.372371,128.809741 C396.501861,128.868328 396.751727,128.66412 397.000013,128.460519 C397.160933,131.430954 400.437686,132.880453 402.669068,132.457078 C403.859363,134.707493 405.063512,137.27747 406.904313,144.907615 Z M428.076673,151.55977 C424.82819,153.023332 424.444033,155.986416 425.11857,157.460175 C425.960408,159.086299 428.486971,160.282304 431.828713,158.782943 C435.003153,157.131218 435.388891,154.167527 434.714354,152.693768 C433.872516,151.067644 431.345953,149.871639 428.076673,151.55977 Z" id="Fill-1" sketch:type="MSShapeGroup"></path>
        </g>
    </g>
</svg>